<svg width="25" height="24" viewBox="0 0 25 24" fill="none" xmlns="http://www.w3.org/2000/svg">
<g clip-path="url(#clip0_1_1305)">
<path d="M4.6475 14.538C4.5103 14.1788 4.24041 13.8861 3.89356 13.7201C3.54671 13.5542 3.14939 13.5278 2.78364 13.6464C2.41789 13.765 2.11164 14.0195 1.92813 14.3573C1.74461 14.6952 1.69785 15.0907 1.7975 15.462C2.06363 16.2843 2.42403 17.0731 2.8715 17.8125C2.97027 17.9871 3.10307 18.1402 3.26203 18.2626C3.421 18.385 3.6029 18.4742 3.79697 18.525C3.99105 18.5759 4.19335 18.5873 4.3919 18.5586C4.59045 18.5298 4.78123 18.4616 4.95293 18.3578C5.12463 18.254 5.27378 18.1169 5.39153 17.9545C5.50929 17.792 5.59327 17.6076 5.6385 17.4122C5.68372 17.2167 5.68928 17.0142 5.65484 16.8165C5.6204 16.6189 5.54667 16.4302 5.438 16.2615C5.10933 15.7192 4.84409 15.1409 4.6475 14.538Z" fill="#93C5FD"/>
<path d="M12.365 20.25C11.1691 20.2329 9.99142 19.9539 8.91499 19.4325C8.73721 19.3424 8.54325 19.2886 8.34446 19.2743C8.14566 19.26 7.94601 19.2855 7.75716 19.3492C7.56832 19.4129 7.39407 19.5137 7.2446 19.6455C7.09513 19.7774 6.97343 19.9377 6.88662 20.1171C6.7998 20.2965 6.74961 20.4914 6.73898 20.6904C6.72835 20.8895 6.75749 21.0886 6.8247 21.2762C6.8919 21.4639 6.99583 21.6362 7.13041 21.7833C7.26498 21.9303 7.42751 22.049 7.60848 22.1325C9.07824 22.8454 10.6866 23.2269 12.32 23.25H12.35C12.7478 23.253 13.1305 23.0978 13.4139 22.8186C13.6974 22.5394 13.8583 22.1591 13.8612 21.7612C13.8642 21.3634 13.709 20.9807 13.4299 20.6973C13.1507 20.4139 12.7703 20.253 12.3725 20.25H12.365Z" fill="#93C5FD"/>
<path d="M21.5 16.05C21.1664 15.8335 20.7604 15.7583 20.3714 15.841C19.9824 15.9237 19.6422 16.1575 19.4255 16.491C18.7709 17.4937 17.9084 18.3439 16.8965 18.984C16.5599 19.1966 16.3216 19.5343 16.234 19.9226C16.1464 20.3109 16.2166 20.7182 16.4292 21.0547C16.6419 21.3913 16.9795 21.6296 17.3678 21.7172C17.7562 21.8049 18.1634 21.7346 18.5 21.522C19.8811 20.651 21.0579 19.4921 21.95 18.1245C22.0568 17.9588 22.1299 17.7736 22.165 17.5796C22.2002 17.3857 22.1968 17.1866 22.155 16.994C22.1132 16.8013 22.0339 16.6187 21.9215 16.4568C21.8091 16.2948 21.6658 16.1566 21.5 16.05Z" fill="#93C5FD"/>
<path d="M12.5 0.750006C10.3287 0.754556 8.20508 1.3864 6.38449 2.56951L4.15399 0.232506C4.06041 0.134541 3.94204 0.0637519 3.81147 0.0276577C3.68089 -0.0084365 3.54297 -0.00848765 3.41236 0.0275097C3.28176 0.0635071 3.16334 0.134209 3.06969 0.232104C2.97604 0.33 2.91066 0.451433 2.88049 0.583506L0.894485 9.29101C0.869234 9.40087 0.869074 9.51502 0.894017 9.62496C0.918961 9.73489 0.968367 9.83779 1.03856 9.92601C1.10876 10.0142 1.19793 10.0855 1.29946 10.1345C1.40099 10.1835 1.51225 10.2089 1.62499 10.209C1.67117 10.2104 1.71737 10.2074 1.76299 10.2L10.5095 8.56801C10.6422 8.54306 10.7658 8.48273 10.8671 8.39338C10.9684 8.30403 11.0437 8.18898 11.085 8.06038C11.1263 7.93179 11.1322 7.79441 11.1019 7.66278C11.0716 7.53114 11.0063 7.41012 10.913 7.31251L8.51299 4.79101C9.76739 4.09349 11.1823 3.73594 12.6175 3.75381C14.0527 3.77168 15.4583 4.16434 16.6949 4.89287C17.9316 5.6214 18.9564 6.6605 19.6677 7.90715C20.3789 9.1538 20.752 10.5647 20.75 12C20.75 12.3978 20.908 12.7794 21.1893 13.0607C21.4706 13.342 21.8522 13.5 22.25 13.5C22.6478 13.5 23.0293 13.342 23.3106 13.0607C23.5919 12.7794 23.75 12.3978 23.75 12C23.7468 9.0173 22.5605 6.15766 20.4514 4.04856C18.3423 1.93947 15.4827 0.753183 12.5 0.750006Z" fill="#93C5FD"/>
</g>
<defs>
<clipPath id="clip0_1_1305">
<rect width="24" height="24" fill="white" transform="translate(0.5)"/>
</clipPath>
</defs>
</svg>
