<svg width="20" height="20" viewBox="0 0 20 20" fill="none" xmlns="http://www.w3.org/2000/svg">
<path d="M13 18.9993V12.9993C13 12.4688 12.7893 11.9601 12.4142 11.5851C12.0391 11.21 11.5304 10.9993 11 10.9993H9C8.46957 10.9993 7.96086 11.21 7.58579 11.5851C7.21071 11.9601 7 12.4688 7 12.9993V18.9993" stroke="#60A5FA" stroke-width="1.5" stroke-linecap="round" stroke-linejoin="round"/>
<path d="M1 15.9993V8.95928C1 8.28438 1.15181 7.61814 1.44417 7.00986C1.73654 6.40158 2.16198 5.86686 2.689 5.44528L6.877 2.09528C7.76349 1.38626 8.86485 1 10 1C11.1351 1 12.2365 1.38626 13.123 2.09528L17.311 5.44528C17.838 5.86686 18.2635 6.40158 18.5558 7.00986C18.8482 7.61814 19 8.28438 19 8.95928V15.9993C19 16.7949 18.6839 17.558 18.1213 18.1206C17.5587 18.6832 16.7956 18.9993 16 18.9993H4C3.20435 18.9993 2.44129 18.6832 1.87868 18.1206C1.31607 17.558 1 16.7949 1 15.9993Z" stroke="#60A5FA" stroke-width="1.5" stroke-linecap="round" stroke-linejoin="round"/>
</svg>
