<svg width="24" height="24" viewBox="0 0 24 24" fill="none" xmlns="http://www.w3.org/2000/svg">
<path d="M15.41 4.02399L19.477 8.08899C19.664 8.27599 19.8072 8.50217 19.8962 8.75121C19.9852 9.00025 20.0178 9.26594 19.9917 9.52911C19.9656 9.79229 19.8814 10.0464 19.7452 10.2731C19.609 10.4998 19.4241 10.6934 19.204 10.84C16.9213 12.3617 15.2876 14.6795 14.622 17.341L14.252 18.823C14.2135 18.9764 14.1351 19.1168 14.0247 19.2299C13.9142 19.3431 13.7758 19.4249 13.6234 19.4671C13.471 19.5093 13.3102 19.5103 13.1572 19.4701C13.0043 19.4298 12.8649 19.3497 12.753 19.238L4.26299 10.747C4.15124 10.6351 4.07116 10.4956 4.03091 10.3427C3.99065 10.1898 3.99167 10.029 4.03386 9.87661C4.07605 9.72422 4.15789 9.58576 4.27105 9.47533C4.38421 9.36489 4.52463 9.28645 4.67799 9.24799L6.15799 8.87799C8.81982 8.21259 11.1381 6.57892 12.66 4.29599C12.8067 4.07611 13.0003 3.89151 13.227 3.75549C13.4536 3.61947 13.7076 3.53543 13.9706 3.50941C14.2337 3.48339 14.4992 3.51605 14.7481 3.60503C14.997 3.69402 15.2231 3.83711 15.41 4.02399Z" stroke="#ACAFB8" stroke-width="1.5" stroke-linecap="round" stroke-linejoin="round"/>
<path d="M4 19.5L8.508 14.992" stroke="#ACAFB8" stroke-width="1.5" stroke-linecap="round" stroke-linejoin="round"/>
</svg>
