<svg width="24" height="24" viewBox="0 0 24 24" fill="none" xmlns="http://www.w3.org/2000/svg">
<g clip-path="url(#clip0_1_1173)">
<path d="M17.026 6.58601L20.414 9.97401C20.6232 10.1833 20.7833 10.4363 20.8829 10.7149C20.9824 10.9935 21.019 11.2908 20.9898 11.5852C20.9606 11.8796 20.8665 12.1639 20.7142 12.4175C20.5619 12.6712 20.3552 12.8879 20.109 13.052L17.654 14.689C17.2404 14.9651 16.9445 15.3855 16.824 15.868L15.73 20.242C15.687 20.4136 15.5992 20.5707 15.4757 20.6973C15.3521 20.8239 15.1972 20.9154 15.0267 20.9626C14.8562 21.0098 14.6763 21.0109 14.5052 20.9658C14.3341 20.9207 14.1781 20.8311 14.053 20.706L6.293 12.947C6.16794 12.8218 6.07832 12.6657 6.0333 12.4946C5.98829 12.3235 5.98948 12.1435 6.03676 11.973C6.08403 11.8025 6.17571 11.6476 6.30242 11.5241C6.42913 11.4006 6.58634 11.3129 6.758 11.27L11.132 10.177C11.6151 10.0565 12.0358 9.76022 12.312 9.34601L13.948 6.89101C14.1121 6.64484 14.3288 6.43816 14.5825 6.28585C14.8361 6.13354 15.1204 6.03941 15.4148 6.01024C15.7093 5.98106 16.0065 6.01757 16.2851 6.11714C16.5637 6.2167 16.8168 6.37684 17.026 6.58601Z" stroke="#ACAFB8" stroke-width="1.5" stroke-linecap="round" stroke-linejoin="round"/>
<path d="M3 3L6 6" stroke="#ACAFB8" stroke-width="1.5" stroke-linecap="round" stroke-linejoin="round"/>
<path d="M3 6L6 3" stroke="#ACAFB8" stroke-width="1.5" stroke-linecap="round" stroke-linejoin="round"/>
<path d="M10.171 16.829L6.056 20.944" stroke="#ACAFB8" stroke-width="1.5" stroke-linecap="round" stroke-linejoin="round"/>
</g>
<defs>
<clipPath id="clip0_1_1173">
<rect width="24" height="24" fill="white"/>
</clipPath>
</defs>
</svg>
