<svg width="48" height="48" viewBox="0 0 48 48" fill="none" xmlns="http://www.w3.org/2000/svg">
<path d="M42 24C42 28.7739 40.1036 33.3523 36.7279 36.7279C33.3523 40.1036 28.7739 42 24 42C19.2261 42 14.6477 40.1036 11.2721 36.7279C7.89642 33.3523 6 28.7739 6 24C6 19.2261 7.89642 14.6477 11.2721 11.2721C14.6477 7.89642 19.2261 6 24 6C28.7739 6 33.3523 7.89642 36.7279 11.2721C40.1036 14.6477 42 19.2261 42 24Z" stroke="#60A5FA" stroke-width="3" stroke-linecap="round" stroke-linejoin="round"/>
<path d="M21.882 18.116L29.646 22.708C29.8703 22.8407 30.0561 23.0295 30.1852 23.2559C30.3143 23.4823 30.3822 23.7384 30.3822 23.999C30.3822 24.2596 30.3143 24.5157 30.1852 24.7421C30.0561 24.9685 29.8703 25.1573 29.646 25.29L21.882 29.882C21.6541 30.0169 21.3946 30.089 21.1299 30.0911C20.8651 30.0932 20.6045 30.0252 20.3745 29.8939C20.1446 29.7627 19.9534 29.5729 19.8205 29.3439C19.6877 29.1149 19.6178 28.8548 19.618 28.59V19.408C19.6178 19.1432 19.6877 18.8831 19.8205 18.6541C19.9534 18.4251 20.1446 18.2353 20.3745 18.1041C20.6045 17.9728 20.8651 17.9048 21.1299 17.9069C21.3946 17.909 21.6541 17.9811 21.882 18.116Z" fill="#60A5FA" stroke="#60A5FA" stroke-width="3" stroke-linecap="round" stroke-linejoin="round"/>
</svg>
